<svg preserveAspectRatio="none" width="100%" height="100%" overflow="visible" style="display: block;" viewBox="0 0 32.9379 26.3503" fill="none" xmlns="http://www.w3.org/2000/svg">
<path id="Vector" d="M29.6441 0H3.29379C1.4822 0 0 1.4822 0 3.29379V23.0565C0 24.8681 1.4822 26.3503 3.29379 26.3503H29.6441C31.4557 26.3503 32.9379 24.8681 32.9379 23.0565V3.29379C32.9379 1.4822 31.4557 0 29.6441 0ZM28.9853 6.9993L18.2146 13.7351C17.1442 14.4103 15.7937 14.4103 14.7232 13.7351L3.95254 6.9993C3.7874 6.90659 3.64279 6.78135 3.52746 6.63114C3.41213 6.48093 3.32847 6.30888 3.28156 6.12541C3.23464 5.94193 3.22544 5.75084 3.25452 5.56371C3.28359 5.37658 3.35033 5.19729 3.4507 5.03669C3.55107 4.8761 3.68299 4.73754 3.83846 4.62941C3.99393 4.52127 4.16972 4.44581 4.3552 4.40758C4.54068 4.36935 4.73199 4.36915 4.91755 4.407C5.10311 4.44485 5.27905 4.51995 5.43475 4.62777L16.4689 11.5283L27.5031 4.62777C27.6588 4.51995 27.8347 4.44485 28.0203 4.407C28.2059 4.36915 28.3972 4.36935 28.5827 4.40758C28.7681 4.44581 28.9439 4.52127 29.0994 4.62941C29.2549 4.73754 29.3868 4.8761 29.4871 5.03669C29.5875 5.19729 29.6543 5.37658 29.6833 5.56371C29.7124 5.75084 29.7032 5.94193 29.6563 6.12541C29.6094 6.30888 29.5257 6.48093 29.4104 6.63114C29.2951 6.78135 29.1505 6.90659 28.9853 6.9993Z" fill="var(--fill-0, white)"/>
</svg>
