<svg preserveAspectRatio="none" width="100%" height="100%" overflow="visible" style="display: block;" viewBox="0 0 41.7601 41.7601" fill="none" xmlns="http://www.w3.org/2000/svg">
<g id="fluent:call-20-filled">
<path id="Vector" d="M14.5889 4.31373C15.5026 4.03826 16.483 4.08402 17.3671 4.44341C18.2511 4.8028 18.9854 5.45413 19.4477 6.28898L19.6022 6.6001L20.9844 9.67155C21.4031 10.604 21.5388 11.6388 21.3748 12.6477C21.2107 13.6565 20.7541 14.595 20.0615 15.3467L19.7838 15.6224L17.606 17.654C17.2135 18.0257 17.5079 19.4643 18.9278 21.924C20.2056 24.1372 21.2454 25.1708 21.757 25.2272H21.8468L21.9574 25.2063L26.2379 23.8971C26.8131 23.7207 27.427 23.7137 28.0062 23.877C28.5853 24.0403 29.1051 24.367 29.5035 24.8179L29.6935 25.0581L32.5269 28.9835C33.0822 29.7529 33.3589 30.6885 33.3115 31.6362C33.2641 32.5839 32.8953 33.4871 32.2659 34.1972L32.0112 34.4603L30.8795 35.5336C29.8632 36.496 28.592 37.1463 27.2169 37.4073C25.8418 37.6682 24.4207 37.5288 23.1226 37.0056C19.0823 35.377 15.4116 31.6561 12.077 25.8807C8.7362 20.0907 7.34768 15.044 7.96782 10.7218C8.15548 9.41528 8.69348 8.18396 9.52471 7.15863C10.3559 6.13329 11.4493 5.35222 12.6888 4.89837L13.0918 4.76474L14.5889 4.31373Z" fill="var(--fill-0, white)"/>
</g>
</svg>
