<svg preserveAspectRatio="none" width="100%" height="100%" overflow="visible" style="display: block;" viewBox="0 0 31.3087 31.1863" fill="none" xmlns="http://www.w3.org/2000/svg">
<g id="Mask group">
<mask id="mask0_0_31" style="mask-type:luminance" maskUnits="userSpaceOnUse" x="0" y="0" width="32" height="32">
<g id="Group">
<path id="Vector" d="M15.6543 0.786133H15.6562C17.6083 0.780238 19.543 1.16006 21.3477 1.9043C23.1522 2.64853 24.7915 3.74289 26.1719 5.12305L26.1748 5.125C27.5568 6.49327 28.653 8.1231 29.3994 9.91895C30.1458 11.7147 30.5274 13.6412 30.5225 15.5859V15.5879C30.5225 23.7428 23.8481 30.3848 15.6543 30.3848H15.6484C13.1659 30.3841 10.722 29.7644 8.53906 28.582L8.2666 28.4336L7.9668 28.5127L0.986328 30.3359L2.84863 23.5771L2.93555 23.2598L2.77148 22.9746C1.46994 20.7253 0.786133 18.1757 0.786133 15.5801C0.786362 7.42697 7.46061 0.786143 15.6543 0.786133ZM9.89453 7.33398C9.58184 7.34202 9.27378 7.41383 8.99023 7.5459C8.7138 7.67468 8.46609 7.85785 8.26172 8.08398L8.19043 8.16113C7.72876 8.64874 6.63281 9.81229 6.63281 11.9902C6.63287 13.144 7.04537 14.2348 7.4541 15.042C7.84415 15.8123 8.26167 16.3839 8.41406 16.5879L8.41895 16.5957L8.43066 16.6113L8.51367 16.7305C9.03251 17.4999 11.6615 21.3936 15.709 22.9854C17.2803 23.6041 18.328 23.9031 19.0938 24.0312C19.8873 24.164 20.3594 24.1083 20.7354 24.0635L20.7363 24.0645L20.9482 24.0391L20.9473 24.0381C21.4998 23.9814 22.2151 23.6662 22.8027 23.2881C23.3866 22.9123 24.0703 22.3313 24.333 21.6084L24.3359 21.6016C24.5248 21.0652 24.6225 20.5625 24.6572 20.1562C24.6745 19.9541 24.6771 19.7639 24.6641 19.5977C24.6542 19.4723 24.628 19.2312 24.5049 19.0215L24.5 19.0127L24.4463 18.9316C24.3155 18.7524 24.1522 18.6389 24.0352 18.5674C23.9676 18.5261 23.8941 18.487 23.8213 18.4502L23.6113 18.3477L23.3965 18.2432H23.3975C23.1937 18.1425 22.5927 17.8474 21.9951 17.5596C21.4203 17.2827 20.7856 16.9815 20.5557 16.8955L20.5537 16.8945L20.3994 16.8398C20.2186 16.7802 19.9641 16.7173 19.6934 16.749C19.3025 16.795 19.012 17.0082 18.8008 17.2812L18.7217 17.3916C18.5006 17.7168 17.8648 18.4647 17.5664 18.8125C17.5649 18.8117 17.5631 18.8113 17.5615 18.8105V18.8096L17.5488 18.8047L17.2529 18.6719L17.2432 18.668L16.8662 18.5029C15.9964 18.0995 15.1917 17.567 14.4785 16.9238L14.4727 16.9189C13.4543 16.0174 12.7265 14.9021 12.4443 14.4326C12.5831 14.2918 12.7325 14.1135 12.8564 13.9619L12.8574 13.9629L13.082 13.6953L13.0811 13.6943C13.3282 13.4094 13.4414 13.1724 13.5488 12.9512L13.5498 12.9492L13.5938 12.8584L13.5928 12.8574C13.8377 12.3513 13.7497 11.9016 13.6152 11.584L13.5557 11.4561C13.5514 11.4465 13.54 11.4225 13.5205 11.377C13.4961 11.3199 13.4646 11.2445 13.4268 11.1533C13.351 10.9707 13.2537 10.7338 13.1455 10.4707H13.1465C12.873 9.80557 12.5281 8.96468 12.3203 8.50195L12.3193 8.50098L12.2461 8.34668C12.0669 7.99817 11.8398 7.7218 11.5361 7.5459C11.1955 7.34865 10.8615 7.34556 10.7188 7.3418H10.7197C10.4712 7.3334 10.1832 7.33398 9.91504 7.33398H9.89453Z" fill="var(--fill-0, white)" stroke="var(--stroke-0, white)" stroke-width="1.57203"/>
</g>
</mask>
<g mask="url(#mask0_0_31)">
<path id="Vector_2" fill-rule="evenodd" clip-rule="evenodd" d="M0.157203 30.3891C0.127581 30.4956 0.126595 30.6081 0.154344 30.7152C0.182092 30.8223 0.237595 30.9201 0.315249 30.9989C0.392903 31.0777 0.489962 31.1346 0.59663 31.1638C0.703298 31.1931 0.8158 31.1937 0.922784 31.1656L8.16514 29.2729C10.463 30.5175 13.0348 31.1697 15.648 31.1704H15.6543C24.2785 31.1704 31.3086 24.1811 31.3086 15.5884C31.3139 13.5393 30.9117 11.5096 30.1252 9.61747C29.3388 7.72532 28.1839 6.00847 26.7277 4.56683C25.2741 3.11335 23.5474 1.96162 21.647 1.17788C19.7466 0.394141 17.71 -0.00613655 15.6543 7.11107e-05C7.03014 7.11107e-05 0 6.98933 0 15.5805C0 18.3143 0.719992 20.9993 2.09081 23.3684L0.157203 30.3891ZM10.693 8.12749C10.9807 8.13535 11.2998 8.15107 11.6032 8.8239C11.8044 9.27193 12.1424 10.0972 12.4191 10.7701C12.6344 11.2936 12.8105 11.7243 12.8545 11.8123C12.9567 12.0136 13.018 12.2446 12.886 12.5166L12.8419 12.6078C12.735 12.8279 12.6596 12.9851 12.4804 13.1894L12.2556 13.4567C12.122 13.6202 11.9883 13.7805 11.8751 13.8937C11.6724 14.0949 11.4633 14.3119 11.6959 14.7143C11.9286 15.1167 12.7461 16.4404 13.9518 17.5078C14.8337 18.3032 15.8456 18.9413 16.9434 19.3943C17.0534 19.4414 17.1425 19.4812 17.2106 19.5137C17.6146 19.7149 17.8552 19.6835 18.0878 19.4131C18.3221 19.1412 19.0986 18.2357 19.3722 17.8332C19.6363 17.4308 19.9067 17.4937 20.2808 17.632C20.655 17.7719 22.6452 18.7481 23.0492 18.9478L23.274 19.0578C23.5554 19.1915 23.7456 19.2842 23.8273 19.4194C23.9279 19.5908 23.9279 20.3941 23.5947 21.3404C23.252 22.2837 21.6029 23.1891 20.8562 23.2583L20.644 23.2835C19.9585 23.3652 19.0908 23.4721 15.997 22.2538C12.1833 20.7541 9.66644 17.0346 9.15867 16.2816L9.07535 16.1622L9.06749 16.1496C8.83483 15.8399 7.41843 13.9456 7.41843 11.99C7.41843 10.1193 8.34121 9.14459 8.76095 8.70128L8.83483 8.62268C8.97069 8.4692 9.13669 8.34534 9.32249 8.25879C9.50829 8.17225 9.70992 8.12488 9.91482 8.11963C10.1868 8.11963 10.4603 8.11963 10.693 8.12749Z" fill="var(--fill-0, white)" stroke="var(--stroke-0, white)" stroke-width="3.14407" stroke-linejoin="round"/>
</g>
</g>
</svg>
